<svg width="2594" height="1963" viewBox="0 0 2594 1963" fill="none" xmlns="http://www.w3.org/2000/svg">
<path fill-rule="evenodd" clip-rule="evenodd" d="M1069.18 233.441C1000.88 90.1862 830.145 90.1864 761.85 233.441L151.037 1514.68C82.7416 1657.93 168.11 1837 304.7 1837H1067.67H1526.33H2289.3C2425.89 1837 2511.26 1657.93 2442.96 1514.68L1832.15 233.441C1763.86 90.1862 1593.12 90.1864 1524.82 233.441L1297 711.32L1069.18 233.441Z" stroke="url(#paint0_linear_31:177)" stroke-width="252"/>
<path d="M1392.35 1239.18C1392.35 1307.2 1373.39 1363.19 1349.31 1398.61C1324.77 1434.71 1304.02 1438.82 1296.99 1438.82C1289.97 1438.82 1269.21 1434.71 1244.68 1398.61C1220.6 1363.19 1201.64 1307.2 1201.64 1239.18C1201.64 1216.04 1209.66 1176.74 1228.89 1122.9C1246.84 1072.64 1271.31 1018.48 1296.99 967.189C1322.67 1018.48 1347.15 1072.64 1365.1 1122.9C1384.33 1176.74 1392.35 1216.04 1392.35 1239.18Z" stroke="#5189ED" stroke-width="252"/>
<defs>
<linearGradient id="paint0_linear_31:177" x1="1297" y1="126" x2="1297" y2="1837" gradientUnits="userSpaceOnUse">
<stop stop-color="#8759F2"/>
<stop offset="1" stop-color="#00D4E6"/>
</linearGradient>
</defs>
</svg>
