<svg width="33" height="19" viewBox="0 0 33 19" fill="none" xmlns="http://www.w3.org/2000/svg">
<path fill-rule="evenodd" clip-rule="evenodd" d="M13.4818 2.0675C12.5771 0.644164 10.3152 0.644166 9.4104 2.06751L1.31843 14.7975C0.41367 16.2208 1.54463 18 3.35415 18H13.4619H19.5381H29.6459C31.4554 18 32.5863 16.2208 31.6816 14.7975L23.5896 2.0675C22.6848 0.644164 20.4229 0.644166 19.5182 2.06751L16.5 6.81557L13.4818 2.0675Z" stroke="url(#paint0_linear_31:177)" stroke-width="2"/>
<mask id="path-2-inside-1_31:177" fill="white">
<path d="M19.4324 12.06C19.4324 13.847 18.1195 15.2955 16.5 15.2955C14.8805 15.2955 13.5676 13.847 13.5676 12.06C13.5676 10.2731 16.5 6.79553 16.5 6.79553C16.5 6.79553 19.4324 10.2731 19.4324 12.06Z"/>
</mask>
<path d="M16.5 6.79553L29.5583 -4.21561L16.5 -19.7016L3.44175 -4.21561L16.5 6.79553ZM2.35135 12.06C2.35135 6.03275 7.14412 -1.78555 16.5 -1.78555V32.3766C29.095 32.3766 36.5135 21.6612 36.5135 12.06H2.35135ZM16.5 -1.78555C25.8559 -1.78555 30.6486 6.03275 30.6486 12.06H-3.51352C-3.51352 21.6612 3.90504 32.3766 16.5 32.3766V-1.78555ZM30.6486 12.06C30.6486 14.0456 30.2644 15.5318 30.0483 16.2489C29.8112 17.0356 29.5647 17.5813 29.4475 17.8275C29.2262 18.2922 29.0961 18.4563 29.2185 18.2739C29.3022 18.1491 29.4193 17.9895 29.5317 17.8447C29.5812 17.781 29.6152 17.7389 29.6252 17.7267C29.6298 17.721 29.6274 17.724 29.6169 17.7367C29.6116 17.743 29.6042 17.752 29.5945 17.7635C29.5896 17.7693 29.5842 17.7758 29.5782 17.783C29.5752 17.7866 29.572 17.7904 29.5687 17.7943C29.567 17.7963 29.5653 17.7983 29.5636 17.8004C29.5627 17.8014 29.5614 17.803 29.5609 17.8035C29.5596 17.8051 29.5583 17.8067 16.5 6.79553C3.44175 -4.21561 3.44037 -4.21398 3.43898 -4.21234C3.43851 -4.21177 3.43711 -4.21011 3.43615 -4.20897C3.43423 -4.2067 3.43227 -4.20437 3.43025 -4.20197C3.42622 -4.19718 3.42199 -4.19215 3.41757 -4.18688C3.40872 -4.17635 3.39908 -4.16485 3.38869 -4.15242C3.36789 -4.12756 3.34401 -4.0989 3.31725 -4.06661C3.26378 -4.00212 3.19842 -3.9227 3.12284 -3.82977C2.97241 -3.64483 2.77735 -3.40131 2.55188 -3.11101C2.11452 -2.54792 1.49849 -1.72648 0.849069 -0.758458C0.238389 0.151817 -0.624893 1.52044 -1.39601 3.13975C-1.94641 4.29556 -3.51352 7.68506 -3.51352 12.06H30.6486ZM16.5 6.79553C3.44175 17.8067 3.44039 17.8051 3.43905 17.8035C3.43862 17.803 3.43728 17.8014 3.43642 17.8004C3.43468 17.7983 3.43298 17.7963 3.43132 17.7943C3.428 17.7904 3.42484 17.7866 3.42182 17.783C3.41579 17.7758 3.41036 17.7693 3.40551 17.7635C3.39582 17.752 3.3884 17.743 3.38311 17.7367C3.3726 17.724 3.37025 17.721 3.37484 17.7267C3.38478 17.7389 3.41882 17.781 3.46826 17.8447C3.58073 17.9895 3.69781 18.1491 3.7815 18.2739C3.90393 18.4563 3.77376 18.2922 3.55247 17.8275C3.43526 17.5813 3.18875 17.0356 2.9517 16.2489C2.73561 15.5318 2.35135 14.0456 2.35135 12.06H36.5135C36.5135 7.68506 34.9464 4.29556 34.396 3.13975C33.6249 1.52044 32.7616 0.151817 32.1509 -0.758458C31.5015 -1.72648 30.8855 -2.54792 30.4481 -3.11101C30.2226 -3.40131 30.0276 -3.64483 29.8772 -3.82977C29.8016 -3.9227 29.7362 -4.00212 29.6827 -4.06661C29.656 -4.0989 29.6321 -4.12756 29.6113 -4.15242C29.6009 -4.16485 29.5913 -4.17635 29.5824 -4.18688C29.578 -4.19215 29.5738 -4.19718 29.5697 -4.20197C29.5677 -4.20437 29.5658 -4.2067 29.5638 -4.20897C29.5629 -4.21011 29.5615 -4.21177 29.561 -4.21234C29.5596 -4.21398 29.5583 -4.21561 16.5 6.79553Z" fill="#5189ED" mask="url(#path-2-inside-1_31:177)"/>
<defs>
<linearGradient id="paint0_linear_31:177" x1="16.5" y1="1" x2="16.5" y2="18" gradientUnits="userSpaceOnUse">
<stop stop-color="#8759F2"/>
<stop offset="1" stop-color="#00D4E6"/>
</linearGradient>
</defs>
</svg>
